@startuml
hide empty description

[*] --> Dashboard

Dashboard -d-> CreateProject : ClickAddProjectButton

CreateProject -d-> EditName : EditProjectName

EditName -u-> CreateProject : ClickAddProjectButton
EditName -d-> SaveName : ConfirmNameChange
EditName -u-> Dashboard : CancelNameChange

SaveName -u-> Dashboard : BackToIdle

@enduml
